<?xml version="1.0" encoding="UTF-8" standalone="no"?>
<!-- Created with Inkscape (http://www.inkscape.org/) -->

<svg
   xmlns:dc="http://purl.org/dc/elements/1.1/"
   xmlns:cc="http://creativecommons.org/ns#"
   xmlns:rdf="http://www.w3.org/1999/02/22-rdf-syntax-ns#"
   xmlns:svg="http://www.w3.org/2000/svg"
   xmlns="http://www.w3.org/2000/svg"
   xmlns:sodipodi="http://sodipodi.sourceforge.net/DTD/sodipodi-0.dtd"
   xmlns:inkscape="http://www.inkscape.org/namespaces/inkscape"
   width="120.93756mm"
   height="110.8638mm"
   viewBox="0 0 120.93756 110.86381"
   version="1.1"
   id="svg8"
   inkscape:version="0.92.3 (2405546, 2018-03-11)"
   sodipodi:docname="reciclando.svg">
  <defs
     id="defs2" />
  <sodipodi:namedview
     id="base"
     pagecolor="#ffffff"
     bordercolor="#666666"
     borderopacity="1.0"
     inkscape:pageopacity="0.0"
     inkscape:pageshadow="2"
     inkscape:zoom="0.49497475"
     inkscape:cx="130.595"
     inkscape:cy="219.99486"
     inkscape:document-units="mm"
     inkscape:current-layer="g825"
     showgrid="false"
     fit-margin-top="0"
     fit-margin-left="0"
     fit-margin-right="0"
     fit-margin-bottom="0"
     inkscape:window-width="1024"
     inkscape:window-height="573"
     inkscape:window-x="1366"
     inkscape:window-y="0"
     inkscape:window-maximized="1"
     scale-x="0.6" />
  <metadata
     id="metadata5">
    <rdf:RDF>
      <cc:Work
         rdf:about="">
        <dc:format>image/svg+xml</dc:format>
        <dc:type
           rdf:resource="http://purl.org/dc/dcmitype/StillImage" />
        <dc:title />
      </cc:Work>
    </rdf:RDF>
  </metadata>
  <g
     inkscape:label="Camada 1"
     inkscape:groupmode="layer"
     id="layer1"
     transform="translate(-44.30915,-88.997539)">
    <g
       transform="matrix(0.35277777,0,0,-0.35277777,18.016869,234.75992)"
       inkscape:label="ink_ext_XXXXXX"
       id="g823">
      <g
         transform="scale(0.1)"
         id="g825">
        <path
           inkscape:connector-curvature="0"
           id="path829"
           style="fill:#d0bea4;fill-opacity:1;fill-rule:nonzero;stroke:none;stroke-width:0.77851492"
           d="m 3565.8841,2971.7543 c 333.0292,-549.7291 141.6756,-1256.1564 -427.3,-1577.8628 -568.9756,-321.7049 -1300.2124,-136.9322 -1633.2415,412.8038 -160.0118,264.1402 -198.9415,564.4592 -133.066,840.9575 0,0 0.056,0.031 0.071,0.1071 l -0.01,0.1301 c 0.3089,1.1325 1.5604,5.5936 3.0494,12.5799 6.5345,30.3862 9.7503,91.105 -31.7932,130.6201 -52.4969,50.0442 -80.0154,43.9609 -89.1455,77.186 -15.6495,56.931 83.8387,79.3515 107.2836,1.8135 22.9777,-75.9463 75.1585,-27.1341 77.3129,-25.091 l 0.024,0.076 c 97.1539,218.5572 264.8724,410.1103 493.5953,539.4372 568.9756,321.7064 1300.2204,136.9253 1633.2178,-412.7579" />
        <path
           inkscape:connector-curvature="0"
           id="path831"
           style="fill:#d0bea4;fill-opacity:1;fill-rule:nonzero;stroke:none;stroke-width:0.77851492"
           d="m 1666.7167,3179.9506 c 0,0.061 0.063,0.1224 0.1901,0.1836 l -0.063,-0.1224 c -0.063,-0.061 -0.1267,-0.061 -0.1267,-0.061" />
        <path
           inkscape:connector-curvature="0"
           id="path833"
           style="fill:#d0bea4;fill-opacity:1;fill-rule:nonzero;stroke:none;stroke-width:0.77851492"
           d="m 1676.1105,3189.5003 c -4.9425,-5.3028 -8.3562,-8.5473 -9.2037,-9.3661 3.0415,3.1221 6.0909,6.2441 9.2037,9.3661" />
        <path
           inkscape:connector-curvature="0"
           id="path835"
           style="fill:#ffffff;fill-opacity:1;fill-rule:nonzero;stroke:none;stroke-width:0.77851492"
           d="m 3607.5147,3871.5559 h -551.875 c 0,0 24.2212,150.3929 92.4966,144.5314 18.8748,-1.6069 31.7379,-20.1248 40.1654,-39.9742 5.1879,-12.2509 23.3182,-11.3785 27.0805,1.3315 18.051,61.1244 54.9847,154.4025 112.2268,154.4025 59.1906,0 61.147,-106.7304 56.8619,-171.7191 -0.6415,-9.7945 12.4908,-14.1485 18.1857,-6.0297 15.6194,22.1908 38.4149,43.5247 66.1369,37.3342 23.6668,-5.2799 34.1615,-28.9859 38.4783,-53.9468 1.2989,-7.499 12.063,-8.4708 14.8273,-1.3621 14.4234,37.0205 39.9911,90.8602 67.1508,91.985 41.4801,1.7141 18.2648,-156.5527 18.2648,-156.5527" />
        <path
           inkscape:connector-curvature="0"
           id="path837"
           style="fill:#ffffff;fill-opacity:1;fill-rule:nonzero;stroke:none;stroke-width:0.77851492"
           d="M 1302.9675,3071.1694 H 751.09405 c 0,0 24.22275,150.3852 92.49745,144.5314 18.87635,-1.6145 31.74176,-20.1324 40.16056,-39.9741 5.19115,-12.2509 23.32534,-11.3863 27.08446,1.3314 18.0534,61.1244 54.98949,154.4026 112.22448,154.4026 59.1945,0 61.1525,-106.7305 56.8643,-171.7191 -0.6337,-9.7946 12.4971,-14.1486 18.1896,-6.0375 15.6218,22.1986 38.4117,43.5324 66.1306,37.3419 23.6723,-5.2799 34.1639,-28.9935 38.4893,-53.9544 1.2998,-7.499 12.0544,-8.4708 14.8234,-1.3544 14.4147,37.0281 39.9895,90.8601 67.1429,91.985 41.4856,1.714 18.2664,-156.5528 18.2664,-156.5528" />
        <path
           inkscape:connector-curvature="0"
           id="path839"
           style="fill:#ffffff;fill-opacity:1;fill-rule:nonzero;stroke:none;stroke-width:0.77851492"
           d="m 1257.7679,3886.1177 c 0,0 21.5305,133.5737 82.1531,128.3703 16.7758,-1.4462 28.1894,-17.8751 35.6664,-35.513 4.6098,-10.8659 20.7203,-10.1007 24.0549,1.1937 16.0392,54.2758 48.8463,137.1166 99.6885,137.1166 52.5769,0 54.3115,-94.7856 50.4938,-152.5125 -0.5703,-8.6927 11.0967,-12.5569 16.1659,-5.3487 13.869,19.7269 34.1061,38.658 58.7233,33.1638 47.9433,-10.6898 35.0327,-106.4702 35.0327,-106.4702 h -401.9786" />
        <path
           inkscape:connector-curvature="0"
           id="path841"
           style="fill:#ffffff;fill-opacity:1;fill-rule:nonzero;stroke:none;stroke-width:0.77851492"
           d="m 745.29301,2273.6142 c 0,0 21.53133,133.5814 82.15474,128.3703 16.77502,-1.4385 28.18859,-17.8674 35.66404,-35.513 4.60978,-10.8659 20.7171,-10.1007 24.05563,1.1937 16.03919,54.2758 48.84786,137.1243 99.68221,137.1243 52.57847,0 54.32097,-94.7856 50.50247,-152.5125 -0.5719,-8.7004 11.092,-12.557 16.1636,-5.3488 13.8665,19.7193 34.1076,38.6428 58.72,33.1639 47.945,-10.6899 35.0368,-106.4779 35.0368,-106.4779 H 745.29301" />
        <path
           inkscape:connector-curvature="0"
           id="path843"
           style="fill:#ffffff;fill-opacity:1;fill-rule:nonzero;stroke:none;stroke-width:0.77851492"
           d="m 3769.8868,3132.5616 c 0,0 21.5203,133.5814 82.1524,128.3704 16.7758,-1.4386 28.1815,-17.8675 35.6664,-35.5054 4.6098,-10.8736 20.7124,-10.1007 24.0469,1.1937 16.0392,54.2681 48.8542,137.1166 99.6886,137.1166 52.5769,0 54.3115,-94.7856 50.5017,-152.5125 -0.5782,-8.6927 11.0888,-12.557 16.1659,-5.3488 13.869,19.7193 34.0981,38.6504 58.7153,33.1639 47.9434,-10.6899 35.0407,-106.4779 35.0407,-106.4779 h -401.9779" />
        <path
           inkscape:connector-curvature="0"
           id="path845"
           style="fill:#e6e6e6;fill-opacity:1;fill-rule:nonzero;stroke:none;stroke-width:0.77851492"
           d="m 2495.8203,3695.4675 c 0,0 -184.8666,-2.3262 -175.3698,-76.5356 9.5047,-74.2017 116.306,31.5034 216.945,5.7467 100.639,-25.7567 115.799,77.2931 -41.5752,70.7889" />
        <path
           inkscape:connector-curvature="0"
           id="path847"
           style="fill:#e6e6e6;fill-opacity:1;fill-rule:nonzero;stroke:none;stroke-width:0.77851492"
           d="m 3152.5719,3567.0971 c -7.1048,12.4192 -20.8945,19.88 -35.5555,20.6146 -29.1003,1.4538 -84.2751,-4.6448 -84.6474,-71.7531 -0.4594,-82.2898 154.3961,-8.5932 120.2029,51.1385" />
        <path
           inkscape:connector-curvature="0"
           id="path849"
           style="fill:#e6e6e6;fill-opacity:1;fill-rule:nonzero;stroke:none;stroke-width:0.77851492"
           d="m 2728.6698,3634.6339 c -0.9742,6.7185 -5.8058,12.3197 -12.2135,15.0745 -12.7364,5.4482 -38.4307,11.83 -50.4621,-18.0588 -14.7482,-36.6456 67.3804,-29.3073 62.6756,2.9843" />
        <path
           inkscape:connector-curvature="0"
           id="path851"
           style="fill:#e6e6e6;fill-opacity:1;fill-rule:nonzero;stroke:none;stroke-width:0.77851492"
           d="m 3900.9093,2412.7127 c 0,0 15.5718,-177.9632 -61.7965,-176.0501 -77.3683,1.9206 21.1401,114.8798 -15.1758,209.1527 -36.3239,94.2577 68.3626,118.8589 76.9723,-33.1026" />
        <path
           inkscape:connector-curvature="0"
           id="path853"
           style="fill:#d0bea4;fill-opacity:1;fill-rule:nonzero;stroke:none;stroke-width:0.77851492"
           d="m 3820.7212,2641.0721 c 7.0097,-0.2832 13.2511,-4.3923 16.7124,-10.292 6.8514,-11.7 15.9283,-35.7885 -13.6947,-50.2585 -36.3159,-17.7527 -36.7436,61.9278 -3.0177,60.5505" />
        <path
           inkscape:connector-curvature="0"
           id="path855"
           style="fill:#e6e6e6;fill-opacity:1;fill-rule:nonzero;stroke:none;stroke-width:0.77851492"
           d="m 3354.0638,1335.1324 c 0,0 163.8611,82.7329 120.6939,144.7908 -43.1513,62.0656 -89.0353,-78.8388 -190.8704,-99.7594 -101.835,-20.9275 -67.1982,-119.4864 70.1765,-45.0314" />
        <path
           inkscape:connector-curvature="0"
           id="path857"
           style="fill:#679e34;fill-opacity:1;fill-rule:nonzero;stroke:none;stroke-width:0.77851492"
           d="m 1900.9681,2654.1417 c 2.891,-6.1828 4.1979,-9.7563 4.1979,-9.7563 0,0 -0.9029,-1.4616 -2.6692,-4.1627 -22.1697,-33.7301 -180.4231,-260.452 -406.2708,-222.3143 -3.4059,0.5739 -6.8434,1.209 -10.2889,1.9054 -1.5762,0.3137 -3.1365,0.6351 -4.6969,0.9718 -69.9626,14.7454 -133.3431,40.3261 -188.2661,69.4268 -4.251,2.2497 -8.4402,4.5147 -12.5771,6.8103 -103.6021,57.1912 -175.0237,125.3861 -200.6412,151.7167 -6.8783,7.0781 -10.4584,11.1413 -10.4584,11.1413 1.3861,0.8418 2.7667,1.6758 4.1465,2.5022 119.0995,71.8526 222.0545,117.8565 310.8483,144.8299 4.9741,1.5151 9.8928,2.969 14.7798,4.354 100.7816,28.7563 182.8072,32.6589 249.1501,22.3516 6.4869,-1.0177 12.8313,-2.1579 19.0332,-3.4205 155.101,-31.8324 217.935,-142.7102 233.7128,-176.3562" />
        <path
           inkscape:connector-curvature="0"
           id="path859"
           style="fill:#86ce2e;fill-opacity:1;fill-rule:nonzero;stroke:none;stroke-width:0.77851492"
           d="m 1900.9681,2654.1417 c 2.891,-6.1828 4.1979,-9.7563 4.1979,-9.7563 0,0 -0.9029,-1.4616 -2.6692,-4.1627 -67.8874,5.5094 -157.192,8.7309 -253.1738,10.445 -5.5285,0.092 -11.0888,0.1836 -16.6728,0.2831 -67.7052,1.0636 -138.2697,1.4386 -206.6165,1.3544 -6.0909,-0.01 -12.1502,-0.015 -18.2015,-0.031 -131.6093,-0.2908 -253.2427,-2.1349 -328.0764,-3.5352 -6.8783,7.0781 -10.4584,11.1413 -10.4584,11.1413 1.3861,0.8418 2.7667,1.6758 4.1465,2.5022 92.0705,1.7447 261.6693,4.3005 432.8967,3.5353 6.2097,-0.023 12.4115,-0.061 18.6133,-0.084 l 0.01,0.01 c 81.3127,-0.4898 162.3721,-1.7524 235.0356,-4.2393 5.7978,-0.1989 11.5323,-0.4055 17.2114,-0.6121 45.678,-1.7294 87.6413,-3.9638 123.7592,-6.8486" />
        <path
           inkscape:connector-curvature="0"
           id="path861"
           style="fill:#86ce2e;fill-opacity:1;fill-rule:nonzero;stroke:none;stroke-width:0.77851492"
           d="m 1428.2198,2654.9758 -2.1861,-2.6706 -133.0596,-162.0928 c -4.251,2.2497 -8.4402,4.5147 -12.5771,6.8103 l 127.4352,155.2519 9.2433,11.2561 11.1443,-8.5549" />
        <path
           inkscape:connector-curvature="0"
           id="path863"
           style="fill:#86ce2e;fill-opacity:1;fill-rule:nonzero;stroke:none;stroke-width:0.77851492"
           d="m 1527.0133,2663.4542 -10.9463,-8.8075 -9.7264,11.2715 -122.0484,141.2946 c 4.9741,1.5151 9.8928,2.969 14.7798,4.354 l 125.8819,-145.7328 0.01,0.01 2.0514,-2.3875" />
        <path
           inkscape:connector-curvature="0"
           id="path865"
           style="fill:#86ce2e;fill-opacity:1;fill-rule:nonzero;stroke:none;stroke-width:0.77851492"
           d="m 1651.5012,2653.981 -2.1782,-3.3133 -153.097,-232.7593 c -3.4059,0.5739 -6.8434,1.209 -10.2889,1.9054 -1.5762,0.3137 -3.1365,0.6351 -4.6969,0.9718 l 151.41,230.1652 6.8434,10.4068 12.0076,-7.3766" />
        <path
           inkscape:connector-curvature="0"
           id="path867"
           style="fill:#86ce2e;fill-opacity:1;fill-rule:nonzero;stroke:none;stroke-width:0.77851492"
           d="m 1667.2553,2830.4979 109.9536,-169.5076 0.7604,-1.1937 -12.071,-7.2924 -5.9008,9.0982 -111.7754,172.316 c 6.4869,-1.0177 12.8313,-2.1579 19.0332,-3.4205" />
        <path
           inkscape:connector-curvature="0"
           id="path869"
           style="fill:#679e34;fill-opacity:1;fill-rule:nonzero;stroke:none;stroke-width:0.77851492"
           d="m 1976.5464,3170.2937 c 1.0534,-13.1997 1.7029,-25.7414 2.1069,-37.273 1.2673,-36.8981 -0.2297,-63.2593 -0.3248,-65.3865 -0.01,-0.061 -0.04,-0.084 -0.04,-0.084 l -261.7517,-199.6184 c 0,0 -0.04,-0.031 -0.103,-0.023 -2.1544,0.4055 -29.0527,5.1192 -65.9072,14.8755 -11.5166,3.0608 -23.9915,6.5807 -37.0367,10.644 -69.9071,21.7853 -154.8634,58.4002 -184.4309,113.051 -9.1246,16.7885 -12.9423,30.3326 -12.9819,41.3439 0.032,5.6625 0.9663,10.6439 2.7643,15.0898 15.2313,37.4643 88.9641,33.2863 101.6766,44.9173 17.1639,15.702 -85.7325,81.9073 -180.2885,112.4542 -88.4088,28.5727 -179.0901,87.6922 -153.2745,153.6144 0.9473,2.3721 1.9865,4.706 3.2332,7.0781 1.0891,2.1961 2.339,4.3464 3.7655,6.5655 45.175,71.2939 134.5534,5.2569 152.1371,37.1123 17.2589,31.3274 -279.3149,233.6545 -152.5918,331.149 1.9334,1.5304 4.0965,3.0685 6.2866,4.5682 2.0205,1.7141 4.0347,3.3593 6.0584,4.8514 127.5501,96.4079 262.3981,-229.247 297.9378,-220.3094 36.1496,9.1289 -9.576,108.4445 72.6873,134.3466 2.5662,0.8264 5.0216,1.4998 7.4928,2.0125 2.6693,0.6198 5.2672,1.0559 7.8731,1.3926 72.3625,8.9606 110.8328,-89.9878 119.1098,-179.6695 8.7919,-95.9411 51.5631,-208.005 71.325,-195.5475 14.7006,9.2743 27.5715,79.4969 68.8299,85.1135 4.887,0.6504 10.1225,0.3673 15.8253,-0.9106 11.0809,-2.594 23.8331,-9.3278 38.6129,-21.8006 48.1651,-40.4716 65.2973,-128.8066 71.0081,-199.5572" />
        <path
           inkscape:connector-curvature="0"
           id="path871"
           style="fill:#86ce2e;fill-opacity:1;fill-rule:nonzero;stroke:none;stroke-width:0.77851492"
           d="m 1205.8571,3765.2386 647.7538,-792.765 -12.3719,-9.435 -647.7523,792.7651 c 1.9461,1.5533 4.1156,3.0685 6.312,4.5606 2.0078,1.7217 4.0038,3.3745 6.0584,4.8743" />
        <path
           inkscape:connector-curvature="0"
           id="path873"
           style="fill:#86ce2e;fill-opacity:1;fill-rule:nonzero;stroke:none;stroke-width:0.77851492"
           d="m 1575.4715,3309.8513 -1.4733,-7.4607 -1.5049,-7.4913 -2.8593,0.5433 -385.1007,71.1026 2.4102,7.3612 c 0.9592,2.3416 1.9921,4.6831 3.2514,7.0705 l 364.5405,-67.2842 11.8096,-2.1809 8.9265,-1.6605" />
        <path
           inkscape:connector-curvature="0"
           id="path875"
           style="fill:#86ce2e;fill-opacity:1;fill-rule:nonzero;stroke:none;stroke-width:0.77851492"
           d="m 1840.9538,2984.9387 -1.4732,-7.453 -1.5049,-7.499 -2.8514,0.5433 -419.0468,77.3237 c 0.016,5.6319 0.9584,10.621 2.7643,15.0439 l 401.3759,-74.1176 11.8096,-2.1808 8.9265,-1.6605" />
        <path
           inkscape:connector-curvature="0"
           id="path877"
           style="fill:#86ce2e;fill-opacity:1;fill-rule:nonzero;stroke:none;stroke-width:0.77851492"
           d="m 1599.7956,3683.2395 -17.8213,-378.3161 -0.1268,-2.8848 -7.8493,0.352 -7.8889,0.3214 0.4357,8.7998 0.5227,11.6541 16.8867,358.0918 c 2.693,0.6427 5.291,1.0636 7.881,1.4232 l 7.9602,0.5586" />
        <path
           inkscape:connector-curvature="0"
           id="path879"
           style="fill:#86ce2e;fill-opacity:1;fill-rule:nonzero;stroke:none;stroke-width:0.77851492"
           d="m 1866.9017,3391.6591 -19.4451,-411.6483 -0.1188,-2.8771 -7.8572,0.352 -7.8889,0.3137 0.4356,8.7998 0.5228,11.6541 18.5658,394.3011 c 4.8712,0.6734 10.1067,0.3979 15.7858,-0.8953" />
        <path
           inkscape:connector-curvature="0"
           id="path881"
           style="fill:#679e34;fill-opacity:1;fill-rule:nonzero;stroke:none;stroke-width:0.77851492"
           d="m 3150.5997,1546.0138 c -13.5284,2.8618 -26.2806,5.9226 -37.9555,8.9146 -37.3298,9.588 -63.3014,18.6862 -65.4003,19.3979 -0.063,0.031 -0.079,0.069 -0.079,0.069 l -123.4979,303.0202 c 0,0 -0.016,0.046 0.01,0.1 1.0297,1.8977 13.6076,25.6649 34.1457,57.2677 6.4315,9.8788 13.6076,20.5228 21.4806,31.5264 42.2485,58.9894 103.736,127.7276 167.1166,139.4046 19.4846,3.627 34.1615,3.2444 45.2107,0.061 5.6632,-1.6835 10.376,-4.0097 14.2967,-6.9863 33.0843,-25.1828 7.3582,-92.8956 15.3026,-108.1843 10.7244,-20.6299 107.0943,56.2347 165.3027,135.7163 54.4461,74.3164 140.1548,141.8226 198.6405,98.428 2.1068,-1.5764 4.1424,-3.2292 6.1543,-5.0886 1.8851,-1.6605 3.6672,-3.4511 5.481,-5.4406 58.2163,-63.0604 -34.0427,-127.3374 -7.2632,-153.0711 26.3281,-25.2823 315.6355,192.8922 376.2835,45.9351 0.9663,-2.2497 1.8693,-4.7213 2.7326,-7.2082 1.1247,-2.3951 2.1861,-4.7596 3.089,-7.0782 59.3253,-147.4162 -306.2813,-178.3687 -307.699,-214.2031 -1.4258,-36.4695 111.4268,-22.7265 113.3357,-107.1972 0.079,-2.6476 0.04,-5.1345 -0.1664,-7.5908 -0.1663,-2.6859 -0.4831,-5.234 -0.9108,-7.7745 -12.1581,-70.2762 -122.4999,-77.3313 -214.7589,-58.8746 -98.6826,19.7957 -223.424,12.5416 -216.7153,-9.5651 4.99,-16.4595 71.5784,-49.0035 65.1469,-89.2149 -0.7683,-4.7672 -2.5821,-9.5727 -5.5286,-14.5389 -5.8375,-9.5956 -16.3006,-19.5509 -33.116,-29.7357 -54.6045,-33.2022 -148.0992,-23.4152 -220.6359,-8.0882" />
        <path
           inkscape:connector-curvature="0"
           id="path883"
           style="fill:#86ce2e;fill-opacity:1;fill-rule:nonzero;stroke:none;stroke-width:0.77851492"
           d="m 3971.656,2092.7739 -983.3017,-374.0539 -5.8454,14.3246 983.3175,374.0539 c 0.9822,-2.2727 1.8693,-4.7443 2.7247,-7.2312 1.1326,-2.3874 2.2098,-4.7366 3.1049,-7.0934" />
        <path
           inkscape:connector-curvature="0"
           id="path885"
           style="fill:#86ce2e;fill-opacity:1;fill-rule:nonzero;stroke:none;stroke-width:0.77851492"
           d="m 3407.5357,1880.2236 -7.0335,3.5505 -7.0652,3.6041 1.3782,2.5023 183.7023,339.2831 6.6691,-4.3999 c 2.0752,-1.584 4.1187,-3.2369 6.1385,-5.1116 l -173.8808,-321.1631 -5.6315,-10.4068 -4.2771,-7.8586" />
        <path
           inkscape:connector-curvature="0"
           id="path887"
           style="fill:#86ce2e;fill-opacity:1;fill-rule:nonzero;stroke:none;stroke-width:0.77851492"
           d="m 3004.536,1726.9153 -7.0414,3.5582 -7.0651,3.5964 1.3702,2.5099 199.8524,369.1872 c 5.6394,-1.6605 10.3601,-3.9943 14.257,-6.9786 l -191.4723,-353.6001 -5.6236,-10.4067 -4.2772,-7.8663" />
        <path
           inkscape:connector-curvature="0"
           id="path889"
           style="fill:#86ce2e;fill-opacity:1;fill-rule:nonzero;stroke:none;stroke-width:0.77851492"
           d="m 3774.457,1748.4175 -373.7568,127.1613 -2.8435,0.9642 2.6455,7.2311 2.6217,7.2924 8.6889,-2.9843 11.5165,-3.8949 353.7811,-120.374 c -0.1505,-2.7088 -0.4831,-5.2569 -0.8871,-7.7821 l -1.7663,-7.6137" />
        <path
           inkscape:connector-curvature="0"
           id="path891"
           style="fill:#86ce2e;fill-opacity:1;fill-rule:nonzero;stroke:none;stroke-width:0.77851492"
           d="m 3404.3674,1583.8607 -406.6747,138.4175 -2.8435,0.9565 2.6454,7.2388 2.6218,7.2771 8.6968,-2.969 11.5086,-3.8949 389.5505,-132.5254 c -0.7446,-4.7519 -2.5505,-9.5727 -5.5049,-14.5006" />
        <path
           inkscape:connector-curvature="0"
           id="path893"
           style="fill:#679e34;fill-opacity:1;fill-rule:nonzero;stroke:none;stroke-width:0.77851492"
           d="m 2101.5729,1755.3732 c 1.3703,-9.5268 1.6713,-14.8832 1.6713,-14.8832 0,0 -1.8376,-1.6376 -5.3623,-4.6295 -44.1018,-37.2577 -353.092,-284.1273 -644.1657,-144.9446 -4.396,2.0966 -8.8077,4.2927 -13.1958,6.573 -2.0039,1.0331 -3.9999,2.0814 -5.98,3.1297 -88.9561,47.1059 -164.4774,106.3785 -227.0406,167.1661 -4.8426,4.6984 -9.6037,9.3967 -14.2729,14.118 -117.0694,117.78 -185.8582,238.0698 -209.75936,283.7601 -6.41647,12.2738 -9.59105,19.1759 -9.59105,19.1759 2.22727,0.6045 4.45534,1.2091 6.67072,1.7983 191.60699,51.5746 350.56609,74.2552 482.39639,76.5661 7.382,0.1454 14.6769,0.2066 21.8925,0.2066 148.8596,0.092 261.934,-26.3306 347.809,-66.0063 8.3958,-3.8796 16.5382,-7.8893 24.443,-12.0061 197.5632,-103.2411 236.9999,-278.2046 244.4848,-330.0241" />
        <path
           inkscape:connector-curvature="0"
           id="path895"
           style="fill:#86ce2e;fill-opacity:1;fill-rule:nonzero;stroke:none;stroke-width:0.77851492"
           d="m 2101.5729,1755.3732 c 1.3703,-9.5268 1.6713,-14.8832 1.6713,-14.8832 0,0 -1.8376,-1.6376 -5.3623,-4.6295 -89.962,33.7531 -209.9748,72.6636 -339.6824,112.1251 -7.4691,2.265 -14.9937,4.5377 -22.542,6.8256 -91.562,27.6391 -187.2824,55.4313 -280.1909,81.7619 -8.277,2.3415 -16.5144,4.6754 -24.736,7.0016 -178.9531,50.5034 -345.0035,95.0382 -447.26306,122.0881 -6.41647,12.2738 -9.59105,19.1759 -9.59105,19.1759 2.22727,0.6045 4.45534,1.2091 6.67072,1.7983 125.82569,-33.2481 357.33819,-95.3596 589.68079,-162.6285 8.4355,-2.4257 16.8471,-4.8897 25.2667,-7.3154 h 0.016 c 110.2863,-32.1078 219.8993,-65.1722 317.6077,-96.668 7.7939,-2.5098 15.5006,-5.0044 23.1281,-7.4837 61.3529,-20.01 117.4465,-39.2855 165.3265,-57.1682" />
        <path
           inkscape:connector-curvature="0"
           id="path897"
           style="fill:#86ce2e;fill-opacity:1;fill-rule:nonzero;stroke:none;stroke-width:0.77851492"
           d="m 1459.5536,1939.3431 -4.087,-2.77 -247.9668,-168.7884 c -4.8426,4.6984 -9.6037,9.3967 -14.2729,14.118 l 237.5037,161.672 17.2114,11.7076 11.6116,-15.9392" />
        <path
           inkscape:connector-curvature="0"
           id="path899"
           style="fill:#86ce2e;fill-opacity:1;fill-rule:nonzero;stroke:none;stroke-width:0.77851492"
           d="m 1597.3085,1912.6682 -18.5262,-7.7439 -8.5543,19.0842 -107.2844,239.1946 c 7.382,0.1454 14.6769,0.2066 21.8925,0.2066 l 110.6586,-246.7166 h 0.016 l 1.7979,-4.0249" />
        <path
           inkscape:connector-curvature="0"
           id="path901"
           style="fill:#86ce2e;fill-opacity:1;fill-rule:nonzero;stroke:none;stroke-width:0.77851492"
           d="m 1762.532,1851.6356 -4.3325,-3.65 -304.4833,-257.0697 c -4.396,2.0966 -8.8077,4.2927 -13.1958,6.573 -2.0039,1.0331 -3.9999,2.0814 -5.98,3.1297 l 301.1171,254.1926 13.6155,11.4934 13.259,-14.669" />
        <path
           inkscape:connector-curvature="0"
           id="path903"
           style="fill:#86ce2e;fill-opacity:1;fill-rule:nonzero;stroke:none;stroke-width:0.77851492"
           d="m 1857.0881,2085.3973 79.1583,-272.8559 0.5466,-1.9053 -19.4213,-5.2493 -4.2534,14.6383 -80.4732,277.3783 c 8.3958,-3.8796 16.5382,-7.8893 24.443,-12.0061" />
        <path
           inkscape:connector-curvature="0"
           id="path905"
           style="fill:#679e34;fill-opacity:1;fill-rule:nonzero;stroke:none;stroke-width:0.77851492"
           d="m 3742.4974,3419.0917 c -1.3227,-6.1217 -2.7088,-12.2892 -4.1583,-18.4797 -18.6926,-80.1014 -48.7116,-165.3526 -96.0213,-247.344 -1.0693,-1.8212 -2.1227,-3.6424 -3.192,-5.4712 -2.3682,-4.0173 -4.7761,-7.9658 -7.2473,-11.8377 -162.7048,-256.098 -543.4,-207.9744 -598.9313,-199.4424 -4.4434,0.6964 -6.8117,1.1249 -6.8117,1.1249 0,0 -2.59,4.4917 -6.487,12.9013 -21.2588,45.6979 -81.5266,207.0485 24.3004,388.0188 4.2217,7.2236 8.7047,14.4853 13.4808,21.7548 48.7434,74.4465 126.5315,151.5483 247.3442,224.7399 5.8534,3.5429 11.8096,7.0858 17.8689,10.6134 108.1636,62.9991 249.0471,122.8379 431.688,175.2925 2.099,0.6046 4.2138,1.2091 6.3444,1.8136 0,0 1.0455,-7.1394 2.3207,-20.2779 4.7128,-48.8276 12.3403,-180.2587 -20.4985,-333.4063" />
        <path
           inkscape:connector-curvature="0"
           id="path907"
           style="fill:#86ce2e;fill-opacity:1;fill-rule:nonzero;stroke:none;stroke-width:0.77851492"
           d="m 3762.9959,3752.498 c -68.6952,-72.2734 -179.9003,-190.0992 -298.4003,-319.143 -5.4573,-5.9303 -10.9225,-11.8912 -16.3956,-17.8598 -61.4638,-67.0853 -124.4721,-136.734 -184.1537,-204.2096 -4.9108,-5.563 -9.8136,-11.126 -14.6927,-16.6584 -84.4018,-95.8187 -161.2395,-186.434 -216.4064,-258.1105 -4.4434,0.6964 -6.8117,1.1249 -6.8117,1.1249 0,0 -2.59,4.4917 -6.487,12.9013 29.4013,38.0612 64.7509,81.3027 103.9736,127.7199 4.8474,5.7697 9.7978,11.5928 14.7957,17.4696 62.6519,73.6201 134.1273,154.4025 206.6719,234.7105 5.5445,6.1446 11.0968,12.2662 16.6491,18.4108 153.0021,168.8955 308.0635,333.238 392.592,422.1086 2.099,0.6046 4.2138,1.2091 6.3444,1.8136 0,0 1.0455,-7.1394 2.3207,-20.2779" />
        <path
           inkscape:connector-curvature="0"
           id="path909"
           style="fill:#86ce2e;fill-opacity:1;fill-rule:nonzero;stroke:none;stroke-width:0.77851492"
           d="m 3742.4974,3419.0917 c -1.3227,-6.1217 -2.7088,-12.2892 -4.1583,-18.4797 l -290.1391,14.8832 -4.7761,0.2372 1.0217,18.648 20.15,-1.0254 277.9018,-14.2633" />
        <path
           inkscape:connector-curvature="0"
           id="path911"
           style="fill:#86ce2e;fill-opacity:1;fill-rule:nonzero;stroke:none;stroke-width:0.77851492"
           d="m 3364.8595,3329.1345 -19.1044,-2.839 -0.6654,4.1474 -40.3158,254.6135 c 5.8534,3.5429 11.8096,7.0858 17.8689,10.6134 l 39.096,-246.8161 3.1207,-19.7192" />
        <path
           inkscape:connector-curvature="0"
           id="path913"
           style="fill:#86ce2e;fill-opacity:1;fill-rule:nonzero;stroke:none;stroke-width:0.77851492"
           d="m 3642.3178,3153.268 c -1.0693,-1.8212 -2.1227,-3.6424 -3.192,-5.4712 -2.3682,-4.0173 -4.7761,-7.9658 -7.2473,-11.8377 l -382.5249,58.6681 -5.4573,0.8417 3.0336,18.4414 17.1164,-2.6247 378.2715,-58.0176" />
        <path
           inkscape:connector-curvature="0"
           id="path915"
           style="fill:#86ce2e;fill-opacity:1;fill-rule:nonzero;stroke:none;stroke-width:0.77851492"
           d="m 3142.6949,3081.7598 -18.5342,-5.2952 -0.5386,1.7982 -79.6732,260.2989 c 4.2217,7.2236 8.7047,14.4853 13.4808,21.7548 l 80.9881,-264.5841 4.2771,-13.9726" />
        <path
           inkscape:connector-curvature="0"
           id="path917"
           style="fill:#86ce2e;fill-opacity:1;fill-rule:nonzero;stroke:none;stroke-width:0.77851492"
           d="m 2284.1425,3275.7998 c -225.7289,271.3638 -333.9875,479.4912 -313.687,604.7931 0.8316,5.1345 -2.7564,9.9553 -8.0236,10.7664 -5.2672,0.8035 -10.2096,-2.7012 -11.0413,-7.828 -12.5462,-77.4155 19.7856,-182.6845 96.0847,-312.8837 55.9035,-95.4054 135.45,-204.4008 236.6672,-324.5988 v 29.751" />
        <path
           inkscape:connector-curvature="0"
           id="path919"
           style="fill:#679e34;fill-opacity:1;fill-rule:nonzero;stroke:none;stroke-width:0.77851492"
           d="m 1989.3778,3692.2383 c 0,0 -65.4716,-45.9427 -143.8459,69.4115 0,0 120.6781,42.6295 143.8459,-69.4115" />
        <path
           inkscape:connector-curvature="0"
           id="path921"
           style="fill:#679e34;fill-opacity:1;fill-rule:nonzero;stroke:none;stroke-width:0.77851492"
           d="m 2026.6283,3630.7313 c 0,0 -50.7076,61.155 63.0954,143.8581 0,0 50.3829,-115.0788 -63.0954,-143.8581" />
        <path
           inkscape:connector-curvature="0"
           id="path923"
           style="fill:#679e34;fill-opacity:1;fill-rule:nonzero;stroke:none;stroke-width:0.77851492"
           d="m 1960.1349,3823.1339 c 0,0 -68.7269,41.1831 10.281,156.1319 0,0 86.8572,-92.1151 -10.281,-156.1319" />
        <path
           inkscape:connector-curvature="0"
           id="path925"
           style="fill:#679e34;fill-opacity:1;fill-rule:nonzero;stroke:none;stroke-width:0.77851492"
           d="m 2097.6601,3504.7331 c 0,0 -45.6701,-64.8203 -159.4573,17.8904 0,0 98.7698,79.9025 159.4573,-17.8904" />
        <path
           inkscape:connector-curvature="0"
           id="path927"
           style="fill:#679e34;fill-opacity:1;fill-rule:nonzero;stroke:none;stroke-width:0.77851492"
           d="m 2145.35,3447.672 c 0,0 -60.7984,51.6894 36.6169,152.3288 0,0 70.0339,-104.8557 -36.6169,-152.3288" />
        <path
           inkscape:connector-curvature="0"
           id="path929"
           style="fill:#679e34;fill-opacity:1;fill-rule:nonzero;stroke:none;stroke-width:0.77851492"
           d="m 2202.6713,3363.2242 c 0,0 -44.4028,-65.6544 -159.782,14.9368 0,0 97.2014,81.7159 159.782,-14.9368" />
        <path
           inkscape:connector-curvature="0"
           id="path931"
           style="fill:#86ce2e;fill-opacity:1;fill-rule:nonzero;stroke:none;stroke-width:0.77851492"
           d="m 3898.2875,3139.1423 c -4.8553,2.1503 -10.574,0.054 -12.7759,-4.6754 -54.1372,-116.3031 -264.3972,-232.8205 -610.1706,-338.9311 l -7.7384,-22.0684 c 151.4338,45.8892 278.5751,94.0281 378.6438,143.4831 137.2084,67.8046 223.6221,138.3639 256.8489,209.742 2.194,4.7289 0.048,10.3073 -4.8078,12.4498" />
        <path
           inkscape:connector-curvature="0"
           id="path933"
           style="fill:#679e34;fill-opacity:1;fill-rule:nonzero;stroke:none;stroke-width:0.77851492"
           d="m 3763.392,2987.3338 c 0,0 28.7359,-73.4824 159.2989,-19.1913 0,0 -76.7109,100.3181 -159.2989,19.1913" />
        <path
           inkscape:connector-curvature="0"
           id="path935"
           style="fill:#679e34;fill-opacity:1;fill-rule:nonzero;stroke:none;stroke-width:0.77851492"
           d="m 3697.5719,2955.9452 c 0,0 76.8614,23.8743 28.5141,153.9587 0,0 -107.023,-69.0671 -28.5141,-153.9587" />
        <path
           inkscape:connector-curvature="0"
           id="path937"
           style="fill:#679e34;fill-opacity:1;fill-rule:nonzero;stroke:none;stroke-width:0.77851492"
           d="m 3861.6944,3080.9487 c 0,0 80.6316,-2.464 79.5465,135.8846 0,0 -124.5196,-30.3402 -79.5465,-135.8846" />
        <path
           inkscape:connector-curvature="0"
           id="path939"
           style="fill:#679e34;fill-opacity:1;fill-rule:nonzero;stroke:none;stroke-width:0.77851492"
           d="m 3567.1356,2888.8217 c 0,0 1.5366,-78.6169 143.2518,-70.5747 0,0 -37.3852,119.693 -143.2518,70.5747" />
        <path
           inkscape:connector-curvature="0"
           id="path941"
           style="fill:#679e34;fill-opacity:1;fill-rule:nonzero;stroke:none;stroke-width:0.77851492"
           d="m 3495.1057,2866.7456 c 0,0 79.9425,10.5598 55.4046,146.8347 0,0 -117.6683,-49.9831 -55.4046,-146.8347" />
        <path
           inkscape:connector-curvature="0"
           id="path943"
           style="fill:#679e34;fill-opacity:1;fill-rule:nonzero;stroke:none;stroke-width:0.77851492"
           d="m 3399.5755,2826.9703 c 0,0 0.01,-78.6322 141.8498,-73.2069 0,0 -35.0486,120.3587 -141.8498,73.2069" />
        <path
           inkscape:connector-curvature="0"
           id="path945"
           style="fill:#cccccc;fill-opacity:1;fill-rule:nonzero;stroke:none;stroke-width:0.77851492"
           d="m 3526.4554,1158.1403 c 0,-33.8901 -447.6084,-61.3777 -999.7606,-61.3777 -552.1444,0 -999.7528,27.4876 -999.7528,61.3777 0,33.9054 447.6084,61.393 999.7528,61.393 552.1522,0 999.7606,-27.4876 999.7606,-61.393" />
        <path
           inkscape:connector-curvature="0"
           id="path947"
           style="fill:#262f4b;fill-opacity:1;fill-rule:nonzero;stroke:none;stroke-width:0.77851492"
           d="M 3091.6309,1157.9941 H 2847.241 v 1970.6344 h 562.956 L 3226.5423,1277.8861 c -6.7484,-68.0105 -65.131,-119.892 -134.9114,-119.892" />
        <path
           inkscape:connector-curvature="0"
           id="path949"
           style="fill:#34577a;fill-opacity:1;fill-rule:nonzero;stroke:none;stroke-width:0.77851492"
           d="m 3465.0788,3128.6514 h -1875.976 c -20.5935,0 -37.2901,16.1305 -37.2901,36.0257 v 88.5187 c 0,19.8952 16.6966,36.0257 37.2901,36.0257 h 1875.976 c 20.6014,0 37.2901,-16.1305 37.2901,-36.0257 v -88.5187 c 0,-19.8952 -16.6887,-36.0257 -37.2901,-36.0257" />
        <path
           inkscape:connector-curvature="0"
           id="path951"
           style="fill:#2c3f5e;fill-opacity:1;fill-rule:nonzero;stroke:none;stroke-width:0.77851492"
           d="m 3214.6455,3128.6361 -4.6097,-50.0213 -176.748,-1920.6207 H 1940.0087 c -71.4279,0 -131.0462,52.6911 -137.3668,121.4308 l -154.7287,1681.3564 -15.4372,167.8548 h 1582.1695" />
        <path
           inkscape:connector-curvature="0"
           id="path953"
           style="fill:#262f4b;fill-opacity:1;fill-rule:nonzero;stroke:none;stroke-width:0.77851492"
           d="m 3214.6455,3128.6361 -7.0889,-66.8557 -1563.4215,-50.0978 -11.6591,116.9535 h 1582.1695" />
        <path
           inkscape:connector-curvature="0"
           id="path955"
           style="fill:#fef5eb;fill-opacity:1;fill-rule:nonzero;stroke:none;stroke-width:0.77851492"
           d="m 2033.5746,2221.8635 -58.945,32.4599 190.4031,2.8466 98.445,-162.8734 -58.953,30.7612 -78.8257,-134.2548 c -19.3262,-32.919 -30.4309,-69.8706 -31.3417,-107.7099 -0.032,-1.4309 -0.055,-2.8772 -0.063,-4.3463 L 1987.0095,2057.85 c 0,0 -46.5731,77.4462 46.5651,164.0135" />
        <path
           inkscape:connector-curvature="0"
           id="path957"
           style="fill:#fef5eb;fill-opacity:1;fill-rule:nonzero;stroke:none;stroke-width:0.77851492"
           d="m 2560.4365,1783.4791 -1.1168,-65.5396 -94.1442,159.912 100.4886,161.7102 0.4356,-64.7208 159.7504,-2.2191 c 39.1594,-0.551 78.0416,7.8204 112.8129,25.244 1.3228,0.6504 2.6534,1.3315 3.9841,2.0278 l -110.9675,-176.999 c 0,0 -47.8958,-76.6886 -171.2431,-39.4155" />
        <path
           inkscape:connector-curvature="0"
           id="path959"
           style="fill:#e4d8ca;fill-opacity:1;fill-rule:nonzero;stroke:none;stroke-width:0.77851492"
           d="m 2697.3122,2441.8745 52.6323,29.5522 -93.0907,-160.4859 -195.2267,-0.4286 57.1391,33.799 -77.2653,127.1155 c 0,0 28.8468,71.8066 108.615,86.7357 82.1841,15.3882 147.1963,-116.2879 147.1963,-116.2879" />
        <path
           inkscape:connector-curvature="0"
           id="path961"
           style="fill:#e4d8ca;fill-opacity:1;fill-rule:nonzero;stroke:none;stroke-width:0.77851492"
           d="m 2389.0349,1976.7003 v -190.4818 h -172.4233 c 0,0 -75.4753,1.6834 -87.5384,84.5548 -10.0195,68.8453 30.0666,105.927 30.0666,105.927 h 229.8951" />
        <path
           inkscape:connector-curvature="0"
           id="path963"
           style="fill:#e4d8ca;fill-opacity:1;fill-rule:nonzero;stroke:none;stroke-width:0.77851492"
           d="m 2607.4135,2192.4645 169.6511,97.0659 87.8552,-143.3301 c 0,0 21.2034,-71.1485 -47.8562,-121.6595 -56.4184,-41.2597 -92.5046,-23.178 -92.5046,-23.178 l -117.1455,191.1017" />
        <path
           inkscape:connector-curvature="0"
           id="path965"
           style="fill:#fef5eb;fill-opacity:1;fill-rule:nonzero;stroke:none;stroke-width:0.77851492"
           d="m 2119.0537,2373.3507 88.7106,150.0638 c 0,0 28.3002,45.2694 72.513,45.2694 h 208.3749 c 0,0 -43.0247,-31.6029 -86.3582,-97.6704 -44.094,-67.2384 -111.4031,-191.0558 -111.4031,-191.0558 l -171.8372,93.393" />
        <path
           inkscape:connector-curvature="0"
           id="path967"
           style="fill:#e6e6e6;fill-opacity:1;fill-rule:nonzero;stroke:none;stroke-width:0.77851492"
           d="m 4034.2445,1039.1758 c -0.01,-27.7034 -190.2685,-50.05266 -424.9476,-49.9241 -234.6713,0.13161 -424.9001,22.6905 -424.8763,50.3901 0.01,27.6996 190.2605,50.0519 424.9396,49.9203 234.6792,-0.1224 424.9001,-22.6867 424.8843,-50.3863" />
        <path
           inkscape:connector-curvature="0"
           id="path969"
           style="fill:#2c3f5e;fill-opacity:1;fill-rule:nonzero;stroke:none;stroke-width:0.77851492"
           d="m 3506.5668,2444.2161 c 0,0 -88.267,-83.3841 -128.9709,-111.1686 0,0 -25.3301,5.6471 -78.1446,20.1324 v -76.459 c 33.8526,-13.039 67.8082,-23.7136 89.5581,-24.3947 0,0 78.9287,45.8051 138.1985,106.0801 l -20.6411,85.8098" />
        <path
           inkscape:connector-curvature="0"
           id="path971"
           style="fill:#262f4b;fill-opacity:1;fill-rule:nonzero;stroke:none;stroke-width:0.77851492"
           d="m 3520.2378,1089.9837 -60.4262,0.039 -38.2089,448.8441 43.4682,411.6559 163.2988,14.6843 -98.1995,-469.2298 c 27.6032,-108.4598 4.4038,-247.2232 -9.9324,-405.9935" />
        <path
           inkscape:connector-curvature="0"
           id="path973"
           style="fill:#8d355a;fill-opacity:1;fill-rule:nonzero;stroke:none;stroke-width:0.77851492"
           d="m 3521.9882,1093.496 c 0,0 3.6435,-4.9111 3.6356,-15.05 -0.01,-10.1481 -1.0614,-45.1408 -1.0614,-45.1408 l -176.8509,0.093 c 0,0 -0.6337,26.6145 21.7816,40.8067 22.4073,14.1891 56.8302,0.2601 89.7482,22.5581 0,0 8.7998,-7.7805 62.7469,-3.2666" />
        <path
           inkscape:connector-curvature="0"
           id="path975"
           style="fill:#2c3f5e;fill-opacity:1;fill-rule:nonzero;stroke:none;stroke-width:0.77851492"
           d="m 3851.1442,1093.1907 c -11.6116,121.6588 -66.3666,366.5159 -101.344,419.3302 l -0.063,459.0067 -159.6078,-36.4543 47.4364,-423.463 152.4159,-415.0298 c 18.1936,-9.8489 39.3336,-7.9956 61.1628,-3.3898" />
        <path
           inkscape:connector-curvature="0"
           id="path977"
           style="fill:#8d355a;fill-opacity:1;fill-rule:nonzero;stroke:none;stroke-width:0.77851492"
           d="m 3851.1442,1093.1907 c 0,0 4.0395,-5.1797 4.0316,-15.3278 -0.01,-10.1389 -0.032,-44.7406 -0.032,-44.7406 l -176.6846,0.099 c 0,0 -0.6416,26.6153 21.7737,40.8014 22.4152,14.1945 56.8302,0.2509 89.7482,22.5581 0,0 7.2236,-7.906 61.1628,-3.3898" />
        <path
           inkscape:connector-curvature="0"
           id="path979"
           style="fill:#34577a;fill-opacity:1;fill-rule:nonzero;stroke:none;stroke-width:0.77851492"
           d="m 3446.1327,1935.9074 c 7.778,-12.6794 34.3595,-22.3669 57.2263,-27.7539 1.5683,-0.375 3.1286,-0.727 4.6573,-1.056 3.984,-0.857 7.778,-1.5687 11.3106,-2.1426 37.5119,-6.068 75.2852,-8.7692 113.2644,-8.7309 7.0335,0.01 14.4947,0.4897 22.1539,1.4156 1.5525,0.1837 3.1049,0.3979 4.6653,0.6045 39.5237,5.586 83.4513,22.1909 105.4785,43.5094 l -32.0705,138.9684 61.3529,345.5119 -82.0811,27.1953 -4.4118,1.4615 -18.4233,6.0987 -21.0054,6.9557 -80.4652,-13.3069 -14.1225,-1.8059 -4.9899,-0.6504 -62.1212,-8.004 -60.4183,-508.2704" />
        <path
           inkscape:connector-curvature="0"
           id="path981"
           style="fill:#262f4b;fill-opacity:1;fill-rule:nonzero;stroke:none;stroke-width:0.77851492"
           d="m 3530.0276,2700.7349 c 0,0 -21.8687,-10.3685 -19.247,-46.1876 2.6217,-35.8115 16.1025,-41.2521 16.1025,-41.2521 0,0 31.3814,74.7067 3.1445,87.4397" />
        <path
           inkscape:connector-curvature="0"
           id="path983"
           style="fill:#f7977c;fill-opacity:1;fill-rule:nonzero;stroke:none;stroke-width:0.77851492"
           d="m 3601.305,2526.1233 -3.2712,-44.4735 -1.5049,-26.6597 c 23.8489,-22.0608 70.0734,4.8514 70.0734,4.8514 l 13.2116,64.8815 c -11.1284,9.435 -43.389,6.7032 -62.9291,3.9714 -9.2037,-1.2932 -15.5798,-2.5711 -15.5798,-2.5711" />
        <path
           inkscape:connector-curvature="0"
           id="path985"
           style="fill:#e4636c;fill-opacity:1;fill-rule:nonzero;stroke:none;stroke-width:0.77851492"
           d="m 3601.305,2526.1233 -3.2712,-44.4735 c 31.8329,3.0914 63.1905,41.2903 63.1905,41.2903 l -44.3395,5.7543 c -9.2037,-1.2932 -15.5798,-2.5711 -15.5798,-2.5711" />
        <path
           inkscape:connector-curvature="0"
           id="path987"
           style="fill:#262f4b;fill-opacity:1;fill-rule:nonzero;stroke:none;stroke-width:0.77851492"
           d="m 3531.7543,2682.4389 c 0,0 -46.383,28.236 -26.7637,65.5702 19.6272,37.3266 75.1268,2.1655 131.3313,-7.675 84.79,-14.8449 103.7914,-48.6133 95.7204,-93.041 -8.0632,-44.4353 -15.4848,-104.4195 -39.397,-124.1847 -23.9202,-19.7728 -34.0744,13.5824 -41.2346,42.882 -7.1523,29.2919 -62.7866,123.1211 -119.6564,116.4485" />
        <path
           inkscape:connector-curvature="0"
           id="path989"
           style="fill:#f7977c;fill-opacity:1;fill-rule:nonzero;stroke:none;stroke-width:0.77851492"
           d="m 3522.2813,2644.9593 c -0.1743,-1.5075 -0.3485,-3.0532 -0.5149,-4.6065 -2.7722,-27.8611 -2.2811,-62.1957 -1.0296,-90.2251 1.3306,-29.751 27.8408,-52.577 58.5806,-50.4268 37.0209,2.594 82.9365,7.7974 104.9399,18.1889 6.6929,3.1526 11.1443,6.7873 12.4987,10.9806 3.1445,9.7717 5.9405,23.3004 8.3642,38.0918 7.3661,44.8256 11.3819,101.4046 11.3819,101.4046 -36.506,57.3902 -160.0752,51.9726 -183.5122,16.1534 -5.3464,-8.1953 -8.7206,-22.4586 -10.7086,-39.5609" />
        <path
           inkscape:connector-curvature="0"
           id="path991"
           style="fill:#262f4b;fill-opacity:1;fill-rule:nonzero;stroke:none;stroke-width:0.77851492"
           d="m 3710.7755,2608.176 c 0,0 -17.7105,14.5235 -36.8387,-5.1575 l -12.6492,1.561 c 0,0 4.0316,25.0222 -0.3089,39.3927 -4.3484,14.3781 -28.6171,17.0104 -30.1061,33.5158 0,0 -60.0777,-14.9291 -99.1183,4.9509 -39.0406,19.88 92.5759,70.743 147.616,31.3121 55.0402,-39.4309 46.2404,-63.9633 31.4052,-105.575" />
        <path
           inkscape:connector-curvature="0"
           id="path993"
           style="fill:#262f4b;fill-opacity:1;fill-rule:nonzero;stroke:none;stroke-width:0.77851492"
           d="m 3684.2573,2517.8898 c 6.6929,3.1526 11.1443,6.7873 12.4987,10.9806 3.1445,9.7717 5.9405,23.3004 8.3642,38.0918 l -34.708,-17.2553 c 0,0 -3.3188,-21.9001 13.8451,-31.8171" />
        <path
           inkscape:connector-curvature="0"
           id="path995"
           style="fill:#f7977c;fill-opacity:1;fill-rule:nonzero;stroke:none;stroke-width:0.77851492"
           d="m 3673.9368,2603.0185 c 0,0 22.3598,20.2856 36.8387,5.1575 15.9441,-16.6738 -4.2138,-64.0628 -40.3633,-58.4768 l 3.5246,53.3193" />
        <path
           inkscape:connector-curvature="0"
           id="path997"
           style="fill:#fef5eb;fill-opacity:1;fill-rule:nonzero;stroke:none;stroke-width:0.77851492"
           d="m 3393.54,2045.9664 -198.4345,-33.4776 c -17.6234,-2.9689 -34.415,8.4326 -37.4407,25.466 l -27.5557,154.7163 -9.8057,55.041 -15.8253,87.3708 -20.2847,112.0256 c -4.784,26.346 13.4413,51.4369 40.7198,56.0435 l 1.7346,0.306 c 18.1857,3.0762 30.3438,19.7805 27.1518,37.3572 l -30.9775,170.9769 95.2768,16.1075 30.9854,-170.9845 c 3.1841,-17.5538 20.4905,-29.292 38.6604,-26.2158 13.6551,2.2956 26.9537,-0.9259 37.4644,-8.0576 10.5106,-7.1164 18.1777,-18.1124 20.5697,-31.2968 l 19.9441,-110.1203 16.1738,-89.2838 10.5265,-58.2396 27.4052,-151.5866 c 3.0732,-16.9875 -8.6968,-33.1715 -26.2884,-36.1482" />
        <path
           inkscape:connector-curvature="0"
           id="path999"
           style="fill:#86ce2e;fill-opacity:1;fill-rule:nonzero;stroke:none;stroke-width:0.77851492"
           d="m 3391.9004,2238.3154 -261.7913,-45.6443 -9.8057,55.041 -15.8253,87.3708 261.2448,46.1417 16.1738,-89.2838 10.0037,-53.6254" />
        <path
           inkscape:connector-curvature="0"
           id="path1001"
           style="fill:#679e34;fill-opacity:1;fill-rule:nonzero;stroke:none;stroke-width:0.77851492"
           d="m 3120.3747,2247.2912 -12.5462,69.3274 261.4666,47.2512 12.4353,-70.9725 6.3998,-36.3854 -261.3082,-45.3995 -6.4473,36.1788" />
        <path
           inkscape:connector-curvature="0"
           id="path1003"
           style="fill:#e4d8ca;fill-opacity:1;fill-rule:nonzero;stroke:none;stroke-width:0.77851492"
           d="m 3218.0989,2727.9072 7.2632,-40.0966 c -31.0883,-9.0906 -62.8182,-14.5235 -95.2372,-16.3141 l -7.3028,40.3032 95.2768,16.1075" />
        <path
           inkscape:connector-curvature="0"
           id="path1005"
           style="fill:#86ce2e;fill-opacity:1;fill-rule:nonzero;stroke:none;stroke-width:0.77851492"
           d="m 3229.4333,2715.465 c -37.2664,-11.6693 -75.4753,-18.1276 -114.6268,-19.3825 l -7.0731,39.0482 114.6268,19.3826 7.0731,-39.0483" />
        <path
           inkscape:connector-curvature="0"
           id="path1007"
           style="fill:#2c3f5e;fill-opacity:1;fill-rule:nonzero;stroke:none;stroke-width:0.77851492"
           d="m 3794.1714,2426.2338 c 0,0 35.31,-55.7832 4.9345,-119.2568 -30.3675,-63.4812 -179.1321,-153.7598 -179.1321,-153.7598 l -282.9631,-30.5239 -11.8333,48.3838 c 0,0 91.6967,22.451 120.9553,28.1288 29.2508,5.6854 99.3321,23.9585 148.9942,29.9577 0,0 133.6917,152.7344 199.0445,197.0702" />
        <path
           inkscape:connector-curvature="0"
           id="path1009"
           style="fill:#f7977c;fill-opacity:1;fill-rule:nonzero;stroke:none;stroke-width:0.77851492"
           d="m 3325.1774,2171.0771 c 0,0 -17.2511,15.4264 -32.3081,19.8723 -15.0491,4.4458 -30.8507,0.8111 -45.8919,0.2831 -15.0333,-0.528 -10.4314,-11.7994 3.3504,-14.7761 13.7739,-2.9766 28.6567,-4.2392 25.4568,-8.4937 -3.2079,-4.2622 -64.6637,-12.3963 -76.0377,-24.0962 -11.374,-11.7153 42.2247,-2.4563 42.2247,-2.4563 0,0 -50.4067,-13.3681 -52.664,-22.673 -2.2653,-9.3049 50.5967,5.1957 50.5967,5.1957 0,0 -38.3911,-11.0189 -35.31,-18.9846 2.2099,-5.7008 33.4724,2.2573 48.7037,6.5348 0,0 -37.5357,-11.7918 -32.0863,-16.5131 6.9464,-6.0221 77.202,3.5965 115.799,27.7233 -1.2356,16.5896 -7.0889,31.7329 -11.8333,48.3838" />
        <path
           inkscape:connector-curvature="0"
           id="path1011"
           style="fill:#cccccc;fill-opacity:1;fill-rule:nonzero;stroke:none;stroke-width:0.77851492"
           d="m 753.92487,1037.298 c 0,-25.042 280.07053,-45.34361 625.55953,-45.34361 345.4803,0 625.5524,20.30161 625.5524,45.34361 0,25.0458 -280.0721,45.3474 -625.5524,45.3474 -345.489,0 -625.55953,-20.3016 -625.55953,-45.3474" />
        <path
           inkscape:connector-curvature="0"
           id="path1013"
           style="fill:#fef5eb;fill-opacity:1;fill-rule:nonzero;stroke:none;stroke-width:0.77851492"
           d="m 1901.2374,3283.2682 1.7267,-296.3782 c 0.1188,-18.8469 -80.5445,-34.5718 -180.138,-35.1151 -99.6331,-0.5433 -180.4627,14.3016 -180.5815,33.1485 l -1.7267,296.3859 360.7195,1.9589" />
        <path
           inkscape:connector-curvature="0"
           id="path1015"
           style="fill:#e4d8ca;fill-opacity:1;fill-rule:nonzero;stroke:none;stroke-width:0.77851492"
           d="m 1901.2453,3283.2759 c 0.1109,-18.847 -80.5444,-34.5719 -180.1617,-35.1075 -99.6093,-0.5433 -180.4548,14.294 -180.5578,33.1409 -0.1109,18.8469 80.5524,34.5718 180.1618,35.1075 99.6093,0.5509 180.4469,-14.294 180.5577,-33.1409" />
        <path
           inkscape:connector-curvature="0"
           id="path1017"
           style="fill:#c6b6a3;fill-opacity:1;fill-rule:nonzero;stroke:none;stroke-width:0.77851492"
           d="m 1804.5429,3282.7479 c 0.04,-6.619 -37.3932,-12.1897 -83.594,-12.4422 -46.2008,-0.2525 -83.681,4.9126 -83.7206,11.5316 -0.04,6.619 37.3852,12.1897 83.586,12.4422 46.2008,0.2525 83.689,-4.9126 83.7286,-11.5316" />
        <path
           inkscape:connector-curvature="0"
           id="path1019"
           style="fill:#262f4b;fill-opacity:1;fill-rule:nonzero;stroke:none;stroke-width:0.77851492"
           d="m 1427.5782,1843.5245 h 60.2282 l 38.3515,447.368 -43.096,410.3474 -162.7602,14.7225 97.6134,-467.7606 c -27.5795,-108.0925 -4.5306,-246.4181 9.6631,-404.6773" />
        <path
           inkscape:connector-curvature="0"
           id="path1021"
           style="fill:#73374f;fill-opacity:1;fill-rule:nonzero;stroke:none;stroke-width:0.77851492"
           d="m 1425.8357,1847.0291 c 0,0 -3.6277,-4.8973 -3.6277,-15.0056 0,-10.116 1.0218,-44.9939 1.0218,-44.9939 h 176.2886 c 0,0 0.6415,26.5219 -21.6866,40.6782 -22.3281,14.1562 -56.6481,0.2907 -89.4472,22.5352 0,0 -8.776,-7.7515 -62.5489,-3.2139" />
        <path
           inkscape:connector-curvature="0"
           id="path1023"
           style="fill:#2c3f5e;fill-opacity:1;fill-rule:nonzero;stroke:none;stroke-width:0.77851492"
           d="m 1134.6676,1846.8914 c 11.6489,121.2693 66.369,365.3 101.2656,417.923 l 0.3374,457.5222 159.0629,-36.4237 -47.5315,-422.078 -152.1553,-413.5919 c -18.1429,-9.8023 -39.2133,-7.9505 -60.9791,-3.3516" />
        <path
           inkscape:connector-curvature="0"
           id="path1025"
           style="fill:#73374f;fill-opacity:1;fill-rule:nonzero;stroke:none;stroke-width:0.77851492"
           d="m 1134.6676,1846.8914 c 0,0 -4.0197,-5.1575 -4.0197,-15.2658 0,-10.1083 0,-44.596 0,-44.596 h 176.1255 c 0,0 0.6415,26.5219 -21.6858,40.6782 -22.3298,14.1562 -56.6481,0.2907 -89.4409,22.5352 0,0 -7.2125,-7.8816 -60.9791,-3.3516" />
        <path
           inkscape:connector-curvature="0"
           id="path1027"
           style="fill:#34577a;fill-opacity:1;fill-rule:nonzero;stroke:none;stroke-width:0.77851492"
           d="m 1495.1725,2987.1961 1.2515,-317.0387 c -158.594,-54.9033 -271.3072,17.8292 -271.3072,17.8292 l 48.9905,262.0206 -60.6583,219.6591 41.0358,19.9488 8.3071,4.0479 h 0.019 l 18.0376,8.7692 56.9657,27.7233 114.4842,-14.3093 15.8807,-1.9818 9.4018,-1.1708 12.063,-1.5075 c -5.5364,-36.0563 -1.592,-79.9407 3.0812,-124.4142 8.5146,-17.7833 15.5322,-37.5715 15.9283,-55.2017 0.3802,-15.679 -4.9662,-27.8075 -12.1977,-36.9823 -0.024,-0.023 -0.024,-0.023 -0.024,-0.023 -0.4673,-0.5892 -0.9346,-1.1478 -1.394,-1.7141 l 0.1346,-5.6548" />
        <path
           inkscape:connector-curvature="0"
           id="path1029"
           style="fill:#2c3f5e;fill-opacity:1;fill-rule:nonzero;stroke:none;stroke-width:0.77851492"
           d="m 1495.0299,2992.8509 0.1347,-5.6548 c -15.16,-3.9944 -49.274,-11.4321 -92.6392,-11.4321 -20.7361,0 -43.6029,1.6911 -67.4914,6.2899 -1.9088,0.3597 -3.1286,2.1426 -2.7484,3.9714 0.3722,1.8442 2.2098,3.0149 4.1028,2.6553 76.5446,-14.6996 141.8657,0.7881 160.0356,5.8844 -0.4673,-0.5892 -0.9267,-1.1478 -1.3941,-1.7141" />
        <path
           inkscape:connector-curvature="0"
           id="path1031"
           style="fill:#262f4b;fill-opacity:1;fill-rule:nonzero;stroke:none;stroke-width:0.77851492"
           d="m 1453.8666,3444.9019 c 0,0 19.6827,-17.6991 22.0668,-39.7675 2.3841,-22.0761 -8.1028,-38.6504 -8.1028,-38.6504 l -13.964,78.4179" />
        <path
           inkscape:connector-curvature="0"
           id="path1033"
           style="fill:#262f4b;fill-opacity:1;fill-rule:nonzero;stroke:none;stroke-width:0.77851492"
           d="m 1446.049,3424.1343 c -38.5099,-19.681 -111.9179,-15.1204 -111.9179,-15.1204 -57.2611,-15.0132 -30.3755,-139.0832 -30.3755,-139.0832 -18.569,2.7777 -31.4028,17.0947 -40.2453,34.7708 -4.2763,-31.7635 -10.7269,-61.6141 -20.47,-81.4787 -31.4748,-64.2694 -98.5123,-27.7845 -98.5123,-27.7845 82.0834,-1.7829 65.3512,83.6519 14.7275,144.738 -50.6213,61.0708 -8.4782,161.7638 47.4277,164.4344 55.0664,2.6399 64.7255,-46.9605 64.9885,-48.4297 0.016,-0.023 0.016,-0.038 0.016,-0.038 2.9425,-6.2135 4.0007,-11.1031 4.0007,-11.1031 17.9235,20.6375 107.5505,57.5279 148.302,48.3225 39.7613,-8.9605 53.9313,-52.9444 22.0588,-69.2279" />
        <path
           inkscape:connector-curvature="0"
           id="path1035"
           style="fill:#ffffff;fill-opacity:1;fill-rule:nonzero;stroke:none;stroke-width:0.77851492"
           d="m 1275.6882,3445.0473 c 0,0 -24.195,-20.3238 -31.4566,-59.2955 -5.0526,-0.9565 -9.7709,-1.4386 -14.1858,-1.4922 1.695,12.1744 9.9902,56.7245 41.6322,71.8755 2.952,-6.2058 4.0102,-11.0878 4.0102,-11.0878" />
        <path
           inkscape:connector-curvature="0"
           id="path1037"
           style="fill:#f7977c;fill-opacity:1;fill-rule:nonzero;stroke:none;stroke-width:0.77851492"
           d="m 1390.8029,3263.6714 0.7841,-41.4893 0.3723,-19.0153 c -23.2865,-19.3826 -65.2102,1.9742 -65.2102,1.9742 l -7.8018,66.3048 c 10.8275,8.2413 39.4762,-1.186 57.4956,-4.6447 8.4908,-1.6376 14.36,-3.1297 14.36,-3.1297" />
        <path
           inkscape:connector-curvature="0"
           id="path1039"
           style="fill:#e4636c;fill-opacity:1;fill-rule:nonzero;stroke:none;stroke-width:0.77851492"
           d="m 1390.8029,3263.6714 0.7841,-41.4893 c -29.425,4.377 -56.6401,41.3668 -56.6401,41.3668 l 41.496,3.2522 c 8.4908,-1.6376 14.36,-3.1297 14.36,-3.1297" />
        <path
           inkscape:connector-curvature="0"
           id="path1041"
           style="fill:#f7977c;fill-opacity:1;fill-rule:nonzero;stroke:none;stroke-width:0.77851492"
           d="m 1438.7938,3254.8486 c -50.3592,-26.4454 -113.9457,3.3133 -133.6838,13.9267 -3.9428,2.1349 -6.1432,3.4893 -6.1432,3.4893 0,0 -2.7191,9.9706 -5.4977,24.6701 -2.952,15.6102 -6.0022,36.5691 -5.9404,56.5026 0.077,23.8437 4.5821,46.2412 18.9912,56.3189 l 148.7408,26.8892 c 0,0 0.5069,-1.7523 1.3544,-4.9279 6.9226,-26.1546 36.0624,-148.587 -17.8213,-176.8689" />
        <path
           inkscape:connector-curvature="0"
           id="path1043"
           style="fill:#262f4b;fill-opacity:1;fill-rule:nonzero;stroke:none;stroke-width:0.77851492"
           d="m 1305.11,3268.7753 c -3.9428,2.1349 -6.1432,3.4893 -6.1432,3.4893 0,0 -2.7191,9.9706 -5.4977,24.6701 l 12.2429,-3.8642 c 0,0 9.5126,-13.5594 -0.602,-24.2952" />
        <path
           inkscape:connector-curvature="0"
           id="path1045"
           style="fill:#f7977c;fill-opacity:1;fill-rule:nonzero;stroke:none;stroke-width:0.77851492"
           d="m 1311.0188,3342.8239 c 0,0 -19.9504,21.1885 -34.3968,4.6984 -15.918,-18.1659 3.0043,-67.8429 40.6065,-60.3975 l -6.2097,55.6991" />
        <path
           inkscape:connector-curvature="0"
           id="path1047"
           style="fill:#262f4b;fill-opacity:1;fill-rule:nonzero;stroke:none;stroke-width:0.77851492"
           d="m 1456.6151,3431.7098 c -14.5422,-6.3205 -77.7564,-32.1691 -124.4562,-26.7667 0,0 0.5227,-3.6883 1.1088,-9.435 v 0 c 0,0 0.016,-0.099 0.032,-0.2984 0.032,-0.2143 0.063,-0.5204 0.1109,-0.9106 0.903,-7.5908 5.5761,-49.2178 2.4791,-72.4723 -3.4137,-25.6955 2.796,-46.4402 13.6947,-47.4043 0,0 -8.5779,-4.2546 -17.2589,11.1566 -8.7127,15.4036 -14.962,49.1107 -14.962,49.1107 -5.79,6.9634 -15.0642,20.8365 -29.8345,19.023 0.065,23.836 4.5757,45.9657 18.9912,56.0357 l 148.7328,26.8969 c 0,0 0.5149,-1.7447 1.3624,-4.9356" />
        <path
           inkscape:connector-curvature="0"
           id="path1049"
           style="fill:#2c3f5e;fill-opacity:1;fill-rule:nonzero;stroke:none;stroke-width:0.77851492"
           d="m 1541.0882,3175.367 c -22.9777,18.2424 -51.4443,35.8191 -51.4443,35.8191 -11.7303,-43.8078 -1.5761,-72.3422 -1.5761,-72.3422 0,0 26.2805,-29.1466 53.0204,-39.89 v 76.4131" />
        <path
           inkscape:connector-curvature="0"
           id="path1051"
           style="fill:#2c3f5e;fill-opacity:1;fill-rule:nonzero;stroke:none;stroke-width:0.77851492"
           d="m 1260.2336,3172.6352 c 49.2248,-27.5319 141.7611,-91.2121 185.5778,-116.0812 0,0 41.6544,7.1929 85.875,13.9344 42.89,6.5348 166.6097,36.5613 166.6097,36.5613 l 18.1619,-47.9093 c 0,0 -215.7886,-95.5661 -302.1389,-82.0067 -42.391,6.6496 -81.7721,42.7365 -114.6347,60.9483 -34.9955,19.3979 -66.1274,44.6879 -92.3707,74.2936 -2.7072,3.0531 -4.4981,5.1039 -4.6502,5.364 -21.2398,35.7273 20.6554,75.5408 57.5701,54.8956" />
        <path
           inkscape:connector-curvature="0"
           id="path1053"
           style="fill:#f7977c;fill-opacity:1;fill-rule:nonzero;stroke:none;stroke-width:0.77851492"
           d="m 1698.2961,3107.0497 c 0,0 4.2137,19.9642 12.7917,32.7201 8.578,12.7559 23.1044,19.7652 34.9853,28.6951 11.8808,8.9299 15.8411,-2.5634 7.2552,-13.3987 -8.578,-10.8353 -19.1361,-21.0354 -13.861,-22.3133 5.283,-1.2702 57.8045,30.631 74.303,28.718 16.5066,-1.913 -30.7398,-28.0752 -30.7398,-28.0752 0,0 47.5236,21.0354 55.4442,15.304 7.9206,-5.739 -42.2405,-27.4248 -42.2405,-27.4248 0,0 36.7594,15.3805 39.698,7.3612 2.0989,-5.739 -27.1597,-19.0382 -41.6782,-25.2134 0,0 36.609,14.2557 35.5714,7.2541 -1.3148,-8.9223 -67.7448,-46.0728 -113.3674,-51.5364 l -18.1619,47.9093" />
        <path
           inkscape:connector-curvature="0"
           id="path1055"
           style="fill:#fef5eb;fill-opacity:1;fill-rule:nonzero;stroke:none;stroke-width:0.77851492"
           d="m 1358.2097,1764.2113 -189.1311,-714.4459 c -1.6585,-6.2739 2.259,-11.364 8.7594,-11.364 6.5005,0 13.1118,5.0901 14.7767,11.364 l 189.127,714.4459 h -23.532" />
        <path
           inkscape:connector-curvature="0"
           id="path1057"
           style="fill:#fef5eb;fill-opacity:1;fill-rule:nonzero;stroke:none;stroke-width:0.77851492"
           d="M 1049.1562,1764.2113 860.02989,1049.7654 c -1.65778,-6.2739 2.25895,-11.364 8.75938,-11.364 6.49726,0 13.11254,5.0901 14.77348,11.364 l 189.12945,714.4459 h -23.536" />
        <path
           inkscape:connector-curvature="0"
           id="path1059"
           style="fill:#fef5eb;fill-opacity:1;fill-rule:nonzero;stroke:none;stroke-width:0.77851492"
           d="m 1017.5538,1599.2719 h 308.7597 c 6.4948,0 13.1165,5.0886 14.7719,11.3632 1.6633,6.2823 -2.2574,11.3709 -8.7523,11.3709 H 1023.575 c -6.4972,0 -13.1157,-5.0886 -14.7766,-11.3709 -1.6618,-6.2746 2.2581,-11.3632 8.7554,-11.3632" />
        <path
           inkscape:connector-curvature="0"
           id="path1061"
           style="fill:#fef5eb;fill-opacity:1;fill-rule:nonzero;stroke:none;stroke-width:0.77851492"
           d="m 979.84149,1456.8141 h 308.75411 c 6.5012,0 13.1157,5.081 14.7774,11.3633 1.6657,6.2746 -2.2589,11.3632 -8.7562,11.3632 H 985.86272 c -6.49805,0 -13.1157,-5.0886 -14.77427,-11.3632 -1.66412,-6.2823 2.25578,-11.3633 8.75304,-11.3633" />
        <path
           inkscape:connector-curvature="0"
           id="path1063"
           style="fill:#fef5eb;fill-opacity:1;fill-rule:nonzero;stroke:none;stroke-width:0.77851492"
           d="m 942.12918,1314.7321 h 308.75412 c 6.5004,0 13.1157,5.2577 14.7743,11.7382 1.6641,6.4805 -2.259,11.7382 -8.7562,11.7382 H 948.14646 c -6.49726,0 -13.11175,-5.2577 -14.77349,-11.7382 -1.66491,-6.4805 2.25895,-11.7382 8.75621,-11.7382" />
        <path
           inkscape:connector-curvature="0"
           id="path1065"
           style="fill:#fef5eb;fill-opacity:1;fill-rule:nonzero;stroke:none;stroke-width:0.77851492"
           d="m 904.41608,1171.8757 h 308.75172 c 6.5036,0 13.1157,5.0901 14.7767,11.3701 1.6649,6.277 -2.255,11.364 -8.7554,11.364 H 910.43415 c -6.49726,0 -13.11571,-5.087 -14.77349,-11.364 -1.6649,-6.28 2.255,-11.3701 8.75542,-11.3701" />
        <path
           inkscape:connector-curvature="0"
           id="path1067"
           style="fill:#fef5eb;fill-opacity:1;fill-rule:nonzero;stroke:none;stroke-width:0.77851492"
           d="m 1364.0234,1764.2113 h -23.54 l 189.1278,-714.4459 c 1.6634,-6.2739 8.2771,-11.364 14.7719,-11.364 6.5029,0 10.4235,5.0901 8.7602,11.364 l -189.1199,714.4459" />
        <path
           inkscape:connector-curvature="0"
           id="path1069"
           style="fill:#fef5eb;fill-opacity:1;fill-rule:nonzero;stroke:none;stroke-width:0.77851492"
           d="m 1862.1889,1049.7654 -189.1199,714.4459 h -23.5321 l 189.1279,-714.4459 c 1.6633,-6.2739 8.277,-11.364 14.7798,-11.364 6.4949,0 10.4076,5.0901 8.7443,11.364" />
        <path
           inkscape:connector-curvature="0"
           id="path1071"
           style="fill:#fef5eb;fill-opacity:1;fill-rule:nonzero;stroke:none;stroke-width:0.77851492"
           d="m 1680.1579,1741.7373 h -646.5372 c -3.7433,0 -6.7784,2.9307 -6.7784,6.5424 v 32.1921 c 0,3.6194 3.0351,6.5578 6.7784,6.5578 h 646.5372 c 3.7385,0 6.78,-2.9384 6.78,-6.5578 v -32.1921 c 0,-3.6117 -3.0415,-6.5424 -6.78,-6.5424" />
        <path
           inkscape:connector-curvature="0"
           id="path1073"
           style="fill:#fef5eb;fill-opacity:1;fill-rule:nonzero;stroke:none;stroke-width:0.77851492"
           d="m 1704.6721,1599.2719 h -308.7604 c -6.4949,0 -13.1086,5.0886 -14.7719,11.3632 -1.6633,6.2823 2.2573,11.3709 8.7602,11.3709 h 308.7525 c 6.4949,0 13.1086,-5.0886 14.7719,-11.3709 1.6633,-6.2746 -2.2574,-11.3632 -8.7523,-11.3632" />
        <path
           inkscape:connector-curvature="0"
           id="path1075"
           style="fill:#fef5eb;fill-opacity:1;fill-rule:nonzero;stroke:none;stroke-width:0.77851492"
           d="m 1742.39,1456.8141 h -308.7605 c -6.5028,0 -13.1165,5.081 -14.7798,11.3633 -1.6554,6.2746 2.2653,11.3632 8.7602,11.3632 h 308.7525 c 6.5028,0 13.1165,-5.0886 14.7798,-11.3632 1.6554,-6.2823 -2.2653,-11.3633 -8.7522,-11.3633" />
        <path
           inkscape:connector-curvature="0"
           id="path1077"
           style="fill:#fef5eb;fill-opacity:1;fill-rule:nonzero;stroke:none;stroke-width:0.77851492"
           d="m 1780.092,1314.7321 h -308.7525 c -6.4949,0 -13.1086,5.2577 -14.7719,11.7382 -1.6634,6.4805 2.2573,11.7382 8.7601,11.7382 h 308.7446 c 6.5029,0 13.1165,-5.2577 14.7799,-11.7382 1.6633,-6.4805 -2.2574,-11.7382 -8.7602,-11.7382" />
        <path
           inkscape:connector-curvature="0"
           id="path1079"
           style="fill:#fef5eb;fill-opacity:1;fill-rule:nonzero;stroke:none;stroke-width:0.77851492"
           d="m 1817.8098,1171.8757 h -308.7525 c -6.5028,0 -13.1165,5.0901 -14.7798,11.3701 -1.6554,6.277 2.2574,11.364 8.7602,11.364 h 308.7525 c 6.5028,0 13.1165,-5.087 14.7798,-11.364 1.6554,-6.28 -2.2653,-11.3701 -8.7602,-11.3701" />
      </g>
    </g>
  </g>
</svg>
